<svg xmlns="http://www.w3.org/2000/svg" xmlns:xlink="http://www.w3.org/1999/xlink" width="100" zoomAndPan="magnify" viewBox="0 0 75 74.999997" height="100" preserveAspectRatio="xMidYMid meet" version="1.0"><path fill="#ff5757" d="M 37.507812 71.148438 C 18.957031 71.148438 3.867188 56.058594 3.867188 37.507812 C 3.867188 18.960938 18.957031 3.867188 37.507812 3.867188 C 56.058594 3.867188 71.148438 18.960938 71.148438 37.507812 C 71.148438 56.058594 56.058594 71.148438 37.507812 71.148438 Z M 37.507812 0.00390625 C 16.828125 0.00390625 0.00390625 16.828125 0.00390625 37.507812 C 0.00390625 58.1875 16.828125 75.011719 37.507812 75.011719 C 58.1875 75.011719 75.011719 58.1875 75.011719 37.507812 C 75.011719 16.828125 58.1875 0.00390625 37.507812 0.00390625 " fill-opacity="1" fill-rule="nonzero"/><path fill="#ff5757" d="M 54.746094 14.757812 C 54.746094 14.757812 44.710938 11.433594 43.109375 28.488281 C 41.507812 45.546875 48.589844 43.578125 48.589844 43.578125 L 48.589844 58.171875 C 48.589844 58.171875 49.144531 60.882812 52.101562 60.882812 C 55.058594 60.882812 54.746094 57.867188 54.746094 57.867188 L 54.746094 14.757812 " fill-opacity="1" fill-rule="nonzero"/><path fill="#ff5757" d="M 36.417969 14.136719 C 34.140625 14.136719 34.3125 17.277344 34.3125 17.277344 L 34.3125 30.433594 C 34.3125 30.433594 34.347656 31.835938 32.210938 31.835938 C 30.488281 31.835938 30.53125 30.335938 30.53125 30.335938 L 30.53125 17.347656 C 30.53125 17.347656 30.53125 14.605469 28.925781 14.605469 C 27.324219 14.605469 27.054688 17.277344 27.054688 17.277344 L 27.054688 30.1875 C 27.054688 30.1875 27.054688 31.523438 25.183594 31.523438 C 23.8125 31.523438 22.894531 30.597656 22.976562 29.785156 L 22.976562 17.148438 C 22.976562 17.148438 22.710938 14.804688 21.304688 14.804688 C 19.898438 14.804688 19.5 16.945312 19.5 16.945312 C 19.5 16.945312 18.496094 27.308594 19.03125 33.332031 C 19.566406 39.351562 25.675781 40.488281 25.675781 40.488281 L 25.675781 57.070312 C 25.675781 57.070312 25.675781 60.546875 28.617188 60.546875 C 31.5625 60.546875 31.492188 57.003906 31.492188 57.003906 L 31.492188 40.554688 C 36.644531 38.75 38.460938 35.496094 38.460938 33.691406 C 38.460938 31.886719 38.289062 17.214844 38.289062 17.214844 C 38.289062 17.214844 38.222656 14.136719 36.417969 14.136719 " fill-opacity="1" fill-rule="nonzero"/></svg>